# xmcd
#
# Track frame offsets:
#	150
#	12994
#	29567
#	41391
#	59337
#	89054
#	132883
#	147024
#	171272
#	187375
#	218507
#
# Disc length: 3118 seconds
#
# Revision: 0
# Processed by: cddbd v1.5.2PL0 Copyright (c) Steve Scherf et al.
# Submitted via: audiograbber 1.83.01
#
DISCID=9f0c2c0b
DTITLE=The Beaumonts - Live At The Triple Crown
DYEAR=2007
DGENRE=Country
TTITLE0=Say What You Want
TTITLE1=Satan
TTITLE2=East Texas Girl
TTITLE3=Lubbock Pt. 1
TTITLE4=Fermanda
TTITLE5=Pussy/DWDTL
TTITLE6=Oh Maria
TTITLE7=Lubbock Pt. 2
TTITLE8=Mayonnaise
TTITLE9=Burn 'Em Down
TTITLE10=Toby Keith
EXTD=
EXTT0=
EXTT1=
EXTT2=
EXTT3=
EXTT4=
EXTT5=
EXTT6=
EXTT7=
EXTT8=
EXTT9=
EXTT10=
PLAYORDER=
